<?xml version="1.0" encoding="UTF-8"?>
<svg width="200" height="200" viewBox="0 0 200 200" fill="none" xmlns="http://www.w3.org/2000/svg">
  <!-- Background -->
  <circle cx="100" cy="100" r="100" fill="#e11d48" opacity="0.1"/>
  
  <!-- Face -->
  <circle cx="100" cy="100" r="70" fill="#fff1f3"/>
  
  <!-- Hair -->
  <path d="M60 70 C60 50 80 40 100 40 C120 40 140 50 140 70 L140 90 C140 70 120 60 100 60 C80 60 60 70 60 90 Z" fill="#5d4037"/>
  <path d="M60 90 C70 75 90 85 100 70 C110 85 130 75 140 90" stroke="#5d4037" stroke-width="4" fill="none"/>
  
  <!-- Eyes -->
  <circle cx="80" cy="90" r="8" fill="#ffffff" stroke="#e11d48" stroke-width="1"/>
  <circle cx="120" cy="90" r="8" fill="#ffffff" stroke="#e11d48" stroke-width="1"/>
  <circle cx="80" cy="90" r="4" fill="#e11d48"/>
  <circle cx="120" cy="90" r="4" fill="#e11d48"/>
  
  <!-- Eyebrows -->
  <path d="M70 82 Q80 78 90 82" stroke="#5d4037" stroke-width="2" fill="none"/>
  <path d="M110 82 Q120 78 130 82" stroke="#5d4037" stroke-width="2" fill="none"/>
  
  <!-- Mouth -->
  <path d="M85 120 Q100 130 115 120" stroke="#e11d48" stroke-width="3" stroke-linecap="round"/>
  
  <!-- Earrings -->
  <circle cx="60" cy="100" r="3" fill="#ffdd00"/>
  <circle cx="140" cy="100" r="3" fill="#ffdd00"/>
  
  <!-- Necklace -->
  <path d="M75 150 Q100 160 125 150" stroke="#ffdd00" stroke-width="2" fill="none"/>
  <circle cx="100" cy="155" r="4" fill="#ffdd00"/>
  
  <!-- Crown -->
  <path d="M70 50 L130 50 L130 35 L120 45 L100 30 L80 45 L70 35 Z" fill="#ffdd00"/>
  
  <!-- Badge/Emblem -->
  <circle cx="140" cy="140" r="15" fill="#e11d48"/>
  <text x="140" y="145" text-anchor="middle" font-family="Arial" font-size="16" font-weight="bold" fill="#ffffff">C</text>
</svg>
