<?xml version="1.0" encoding="UTF-8"?>
<svg width="200" height="200" viewBox="0 0 200 200" fill="none" xmlns="http://www.w3.org/2000/svg">
  <!-- Background -->
  <circle cx="100" cy="100" r="100" fill="#0c4a6e" opacity="0.1"/>
  
  <!-- Face -->
  <circle cx="100" cy="100" r="70" fill="#f0f9ff"/>
  
  <!-- Eyes with glasses -->
  <rect x="65" y="80" width="25" height="15" rx="7.5" stroke="#0c4a6e" stroke-width="3" fill="transparent"/>
  <rect x="110" y="80" width="25" height="15" rx="7.5" stroke="#0c4a6e" stroke-width="3" fill="transparent"/>
  <line x1="90" y1="87" x2="110" y2="87" stroke="#0c4a6e" stroke-width="3"/>
  <line x1="65" y1="87" x2="55" y2="82" stroke="#0c4a6e" stroke-width="2"/>
  <line x1="135" y1="87" x2="145" y2="82" stroke="#0c4a6e" stroke-width="2"/>
  
  <circle cx="77.5" cy="87.5" r="3.5" fill="#0c4a6e"/>
  <circle cx="122.5" cy="87.5" r="3.5" fill="#0c4a6e"/>
  
  <!-- Mouth -->
  <path d="M85 115 Q100 122 115 115" stroke="#0c4a6e" stroke-width="2" stroke-linecap="round"/>
  
  <!-- Hair/wig -->
  <path d="M60 70 Q80 50 100 50 Q120 50 140 70 L140 75 Q120 60 100 60 Q80 60 60 75 Z" fill="#7c93a8"/>
  <path d="M60 75 Q70 68 80 75 Q90 82 100 75 Q110 68 120 75 Q130 82 140 75" stroke="#7c93a8" stroke-width="8"/>
  
  <!-- Gavel -->
  <rect x="135" y="135" width="20" height="8" rx="2" fill="#7c93a8"/>
  <rect x="145" y="110" width="8" height="25" rx="2" fill="#7c93a8"/>
  
  <!-- Law Book -->
  <rect x="50" y="135" width="30" height="20" rx="2" fill="#0c4a6e"/>
  <line x1="55" y1="140" x2="75" y2="140" stroke="#f0f9ff" stroke-width="1.5"/>
  <line x1="55" y1="145" x2="75" y2="145" stroke="#f0f9ff" stroke-width="1.5"/>
  <line x1="55" y1="150" x2="75" y2="150" stroke="#f0f9ff" stroke-width="1.5"/>
</svg>
