<?xml version="1.0" encoding="UTF-8"?>
<svg width="200" height="200" viewBox="0 0 200 200" fill="none" xmlns="http://www.w3.org/2000/svg">
  <!-- Background -->
  <circle cx="100" cy="100" r="100" fill="#ec4899" opacity="0.1"/>
  
  <!-- Face -->
  <circle cx="100" cy="100" r="70" fill="#fff1f8"/>
  
  <!-- Mask -->
  <path d="M65 80 Q100 65 135 80 L135 95 Q100 110 65 95 Z" fill="#ec4899"/>
  
  <!-- Eyes -->
  <circle cx="80" cy="87" r="8" fill="#ffffff"/>
  <circle cx="120" cy="87" r="8" fill="#ffffff"/>
  <circle cx="80" cy="87" r="4" fill="#000000"/>
  <circle cx="120" cy="87" r="4" fill="#000000"/>
  
  <!-- Mouth -->
  <path d="M85 120 Q100 130 115 120" stroke="#000000" stroke-width="3" stroke-linecap="round"/>
  
  <!-- Cape -->
  <path d="M60 100 Q100 130 140 100 L150 150 Q100 170 50 150 Z" fill="#ec4899" fill-opacity="0.7"/>
  
  <!-- Emblem -->
  <circle cx="100" cy="75" r="15" fill="#ffdd00"/>
  <path d="M93 75 L100 65 L107 75 L100 85 Z" fill="#ec4899"/>
  
  <!-- Stars -->
  <path d="M160 50 L163 58 L172 58 L165 63 L168 70 L160 65 L152 70 L155 63 L148 58 L157 58 Z" fill="#ffdd00"/>
  <path d="M40 60 L42 65 L48 65 L43 68 L45 73 L40 70 L35 73 L37 68 L32 65 L38 65 Z" fill="#ffdd00"/>
</svg>
