<?xml version="1.0" encoding="UTF-8" standalone="no"?>
<svg width="200" height="200" viewBox="0 0 200 200" fill="none" xmlns="http://www.w3.org/2000/svg">
  <circle cx="100" cy="100" r="100" fill="#0E1628"/>
  <path d="M127.5 75C114.5 69 95.5 76 87.5 97C79.5 118 89 134.5 101.5 138.5C114 142.5 130 136 138 115C146 94 140.5 81 127.5 75Z" fill="#00B4D8"/>
  <path d="M59.6471 145L73.1471 114H83.1471L96.6471 145H87.8471L85.3471 137.5H70.9471L68.4471 145H59.6471ZM73.1471 131H83.1471L78.1471 116.2L73.1471 131Z" fill="#F8F9FA"/>
  <path d="M98.4824 145V114H106.982V138.6H124.982V145H98.4824Z" fill="#F8F9FA"/>
  <path d="M127.918 145V114H136.418V145H127.918Z" fill="#F8F9FA"/>
  <path d="M139.363 145V114H147.863V130.7L160.863 114H169.363V145H160.863V128.3L147.863 145H139.363Z" fill="#F8F9FA"/>
</svg>