<?xml version="1.0" encoding="UTF-8"?>
<svg width="200" height="200" viewBox="0 0 200 200" fill="none" xmlns="http://www.w3.org/2000/svg">
  <!-- Background -->
  <circle cx="100" cy="100" r="100" fill="#10b981" opacity="0.1"/>
  
  <!-- Face -->
  <circle cx="100" cy="100" r="70" fill="#eaf9f1"/>
  
  <!-- Eyes -->
  <circle cx="75" cy="85" r="10" fill="#ffffff" stroke="#10b981" stroke-width="2"/>
  <circle cx="75" cy="85" r="5" fill="#10b981"/>
  <circle cx="125" cy="85" r="10" fill="#ffffff" stroke="#10b981" stroke-width="2"/>
  <circle cx="125" cy="85" r="5" fill="#10b981"/>
  
  <!-- Mouth -->
  <path d="M80 115 Q100 125 120 115" stroke="#10b981" stroke-width="3" stroke-linecap="round"/>
  
  <!-- Speech Bubble -->
  <path d="M150 60 Q160 60 160 70 L160 90 Q160 100 150 100 L130 100 L125 110 L120 100 L100 100 Q90 100 90 90 L90 70 Q90 60 100 60 Z" fill="#10b981" fill-opacity="0.2" stroke="#10b981" stroke-width="2"/>
  
  <!-- Letters in bubble -->
  <text x="125" y="80" text-anchor="middle" font-family="Arial" font-size="12" font-weight="bold" fill="#10b981">A B C</text>
  <text x="125" y="95" text-anchor="middle" font-family="Arial" font-size="10" fill="#10b981">1 2 3</text>
  
  <!-- Globe/World Icon -->
  <circle cx="65" cy="135" r="20" fill="#ffffff" stroke="#10b981" stroke-width="2"/>
  <path d="M45 135 L85 135" stroke="#10b981" stroke-width="1.5"/>
  <path d="M65 115 L65 155" stroke="#10b981" stroke-width="1.5"/>
  <path d="M50 120 Q65 105 80 120" stroke="#10b981" stroke-width="1.5" fill="none"/>
  <path d="M50 150 Q65 165 80 150" stroke="#10b981" stroke-width="1.5" fill="none"/>
  
  <!-- Book -->
  <path d="M135 125 L165 125 L165 155 L135 155 Z" fill="#ffffff" stroke="#10b981" stroke-width="2"/>
  <path d="M135 125 L165 125 L165 155 L135 155" stroke="#10b981" stroke-width="2"/>
  <path d="M150 125 L150 155" stroke="#10b981" stroke-width="2"/>
  <path d="M140 135 L147 135" stroke="#10b981" stroke-width="1"/>
  <path d="M140 140 L147 140" stroke="#10b981" stroke-width="1"/>
  <path d="M140 145 L147 145" stroke="#10b981" stroke-width="1"/>
  <path d="M153 135 L160 135" stroke="#10b981" stroke-width="1"/>
  <path d="M153 140 L160 140" stroke="#10b981" stroke-width="1"/>
  <path d="M153 145 L160 145" stroke="#10b981" stroke-width="1"/>
</svg>
