<?xml version="1.0" encoding="UTF-8"?>
<svg width="200" height="200" viewBox="0 0 200 200" fill="none" xmlns="http://www.w3.org/2000/svg">
  <!-- Background -->
  <circle cx="100" cy="100" r="100" fill="#6366f1" opacity="0.1"/>
  
  <!-- Face -->
  <circle cx="100" cy="100" r="70" fill="#e0e0ff"/>
  
  <!-- Eyes -->
  <circle cx="75" cy="85" r="10" fill="#6366f1"/>
  <circle cx="75" cy="85" r="5" fill="#ffffff"/>
  <circle cx="125" cy="85" r="10" fill="#6366f1"/>
  <circle cx="125" cy="85" r="5" fill="#ffffff"/>
  
  <!-- Mouth -->
  <path d="M80 120 Q100 140 120 120" stroke="#6366f1" stroke-width="5" stroke-linecap="round"/>
  
  <!-- Shield -->
  <path d="M100 45 L80 60 L80 90 L100 105 L120 90 L120 60 Z" fill="#6366f1" stroke="#ffffff" stroke-width="2"/>
  <circle cx="100" cy="75" r="10" fill="#ffffff"/>
  <path d="M95 75 L100 80 L110 70" stroke="#6366f1" stroke-width="2" stroke-linecap="round"/>
  
  <!-- Digital elements -->
  <line x1="60" y1="150" x2="140" y2="150" stroke="#6366f1" stroke-width="2" stroke-dasharray="5 3"/>
  <circle cx="70" cy="150" r="4" fill="#6366f1"/>
  <circle cx="130" cy="150" r="4" fill="#6366f1"/>
  <path d="M90 150 L110 150" stroke="#6366f1" stroke-width="4" stroke-linecap="round"/>
</svg>
