<?xml version="1.0" encoding="UTF-8" standalone="no"?>
<svg width="32" height="32" viewBox="0 0 32 32" xmlns="http://www.w3.org/2000/svg">
  <!-- Background Circle -->
  <circle cx="16" cy="16" r="15" fill="#121212" stroke="#0066cc" stroke-width="1"/>
  
  <!-- "G4I" Letters Simplified -->
  <path d="M10,8 C8,8 6.5,9 6,11 C5.5,13 5.5,15 6,17 C6.5,19 8,20 10,20 C11.5,20 12.5,19 13,18 L11.5,17 C11,17.5 10.5,18 10,18 C9,18 8.5,17 8,16 C7.5,15 7.5,13 8,12 C8.5,11 9,10 10,10 C10.5,10 11,10.5 11.5,11 L13,10 C12.5,9.5 12,9 11.5,8.5 C11,8.2 10.5,8 10,8" 
        fill="#0066cc"/>
  
  <path d="M16,8 L16,13 L15,13 L15,15 L16,15 L16,20 L18,20 L18,15 L20,15 L20,13 L18,13 L18,8 Z" 
        fill="#00aaff"/>
  
  <rect x="22" y="8" width="2" height="12" fill="#ff9500"/>
  
  <!-- Star Path Hint -->
  <path d="M8,23 L24,23" stroke="#3399ff" stroke-width="0.5" stroke-dasharray="1,1"/>
  <circle cx="16" cy="23" r="1" fill="#f1f1f1"/>
</svg>