<?xml version="1.0" encoding="UTF-8" standalone="no"?>
<svg width="200" height="200" viewBox="0 0 200 200" xmlns="http://www.w3.org/2000/svg">
  <!-- Background Circle -->
  <circle cx="100" cy="100" r="95" fill="#121212" stroke="#0066cc" stroke-width="4"/>
  
  <!-- "G" Letter -->
  <path d="M65,58 C53,58 43,64 37,76 C31,88 31,102 37,114 C43,126 53,132 65,132 C75,132 84,127 89,118 L75,112 C73,116 69,119 65,119 C59,119 54,116 51,110 C48,104 48,96 51,90 C54,84 59,81 65,81 C69,81 73,83 75,87 L90,81 C87,76 83,72 78,70 C74,67 70,66 65,66" 
        fill="#0066cc"/>
  
  <!-- "4" Digit -->
  <path d="M105,58 L105,81 L95,81 L95,95 L105,95 L105,132 L120,132 L120,95 L135,95 L135,81 L120,81 L120,58 Z" 
        fill="#00aaff"/>
  
  <!-- "I" Letter -->
  <rect x="145" y="58" width="15" height="74" fill="#ff9500"/>
  
  <!-- Stars -->
  <g fill="#f1f1f1">
    <circle cx="55" cy="145" r="6"/>
    <circle cx="80" cy="145" r="5"/>
    <circle cx="105" cy="145" r="7"/>
    <circle cx="130" cy="145" r="5"/>
    <circle cx="155" cy="145" r="6"/>
  </g>
  
  <!-- Star Path Line -->
  <path d="M40,145 L170,145" stroke="#3399ff" stroke-width="2" stroke-dasharray="5,3"/>
</svg>