<?xml version="1.0" encoding="UTF-8" standalone="no"?>
<svg width="300" height="200" viewBox="0 0 300 200" fill="none" xmlns="http://www.w3.org/2000/svg">
  <rect width="300" height="200" fill="#1A2C53"/>
  <path d="M150 75C161.046 75 170 66.0457 170 55C170 43.9543 161.046 35 150 35C138.954 35 130 43.9543 130 55C130 66.0457 138.954 75 150 75Z" fill="#00B4D8"/>
  <path d="M150 85C123.5 85 110 106.5 110 125V135H190V125C190 106.5 176.5 85 150 85Z" fill="#00B4D8"/>
  <path d="M67.8 145L80.6 115H90.2L103 145H94.6L92.2 137.8H78.6L76.2 145H67.8ZM80.6 131.6H90.2L85.4 117.4L80.6 131.6Z" fill="#F8F9FA"/>
  <path d="M111.219 145V115H127.819C131.019 115 133.619 115.8 135.619 117.4C137.619 119 138.619 121.2 138.619 124C138.619 126 138.019 127.6 136.819 129C135.619 130.4 134.019 131.2 132.019 131.6C134.419 131.8 136.419 132.8 138.019 134.6C139.619 136.4 140.419 138.4 140.419 140.8C140.419 143.6 139.319 145.8 137.119 147.4C134.919 149 132.219 149.8 129.019 149.8C125.819 149.8 119.219 149.8 111.219 145ZM119.619 126.4H126.219C127.419 126.4 128.319 126.1 128.919 125.5C129.519 124.9 129.819 124.1 129.819 123.1C129.819 122.1 129.519 121.3 128.919 120.7C128.319 120.1 127.419 119.8 126.219 119.8H119.619V126.4ZM119.619 140.2H127.019C128.419 140.2 129.519 139.9 130.319 139.3C131.119 138.7 131.519 137.8 131.519 136.6C131.519 135.4 131.119 134.5 130.319 133.9C129.519 133.3 128.419 133 127.019 133H119.619V140.2Z" fill="#F8F9FA"/>
  <path d="M150.478 115H159.478L174.878 145H165.878L162.678 137.8H147.278L144.078 145H135.078L150.478 115ZM149.878 131.6H160.078L154.978 118.4L149.878 131.6Z" fill="#F8F9FA"/>
  <path d="M185.688 145V115H194.088V145H185.688Z" fill="#F8F9FA"/>
  <path d="M206.094 145V115H214.494V139.6H232.094V145H206.094Z" fill="#F8F9FA"/>
  <path d="M94.9688 165V155H98.7188V165H94.9688Z" fill="#ADB5BD"/>
  <path d="M100.703 165V155H104.453V162.2H111.553V165H100.703Z" fill="#ADB5BD"/>
  <path d="M117.43 165V157.8H112.93V155H126.23V157.8H121.73V165H117.43Z" fill="#ADB5BD"/>
  <path d="M129.992 165V155H133.742V159.8H139.392V155H143.142V165H139.392V162.6H133.742V165H129.992Z" fill="#ADB5BD"/>
  <path d="M145.617 165V155H149.367V162.2H156.467V165H145.617Z" fill="#ADB5BD"/>
  <path d="M158.43 165V155H162.18V165H158.43Z" fill="#ADB5BD"/>
  <path d="M164.195 165V155H167.945V159.8H173.795V155H177.545V165H173.795V162.6H167.945V165H164.195Z" fill="#ADB5BD"/>
  <path d="M179.961 165V155H190.461V157.7H183.711V158.9H189.861V161.2H183.711V162.3H190.461V165H179.961Z" fill="#ADB5BD"/>
</svg>